<?xml version="1.0" encoding="utf-8"?>
<!-- Generator: Adobe Illustrator 17.1.0, SVG Export Plug-In . SVG Version: 6.00 Build 0)  -->
<!DOCTYPE svg PUBLIC "-//W3C//DTD SVG 1.1//EN" "http://www.w3.org/Graphics/SVG/1.1/DTD/svg11.dtd">
<svg version="1.1" id="Layer_1" xmlns="http://www.w3.org/2000/svg" xmlns:xlink="http://www.w3.org/1999/xlink" x="0px" y="0px"
	 viewBox="0 0 32 32" enable-background="new 0 0 32 32" xml:space="preserve">
<g>
	<defs>
		<rect id="SVGID_1_" width="32" height="32"/>
	</defs>
	<clipPath id="SVGID_2_">
		<use xlink:href="#SVGID_1_"  overflow="visible"/>
	</clipPath>
	<path clip-path="url(#SVGID_2_)" d="M32.5,2.933C32.5,1.315,31.185,0,29.568,0H4.5c-1.104,0-2,0.895-2,2v6h-2c-0.552,0-1,0.447-1,1
		v1c0,0.552,0.448,1,1,1h2v10h-2c-0.552,0-1,0.447-1,1v1c0,0.552,0.448,1,1,1h2v6c0,1.104,0.896,2,2,2h23c1.105,0,2-0.896,2-2v-6
		h0.068c1.728,0,2.932-1.702,2.932-3.228v-4.011c0-0.517-0.136-0.993-0.378-1.399c0.244-0.469,0.378-0.993,0.378-1.505v-4.01
		c0-0.522-0.138-1.007-0.38-1.423c0.241-0.442,0.38-0.948,0.38-1.481V2.933z M27.5,30h-23v-6h2c0.552,0,1-0.448,1-1v-1
		c0-0.553-0.448-1-1-1h-2V11h2c0.552,0,1-0.448,1-1V9c0-0.553-0.448-1-1-1h-2V2h23V30z M30.5,20.772
		c0,0.515-0.417,1.228-0.932,1.228H28.5v-6h1.068c0.515,0,0.932,0.246,0.932,0.761V20.772z M30.5,13.857
		c0,0.516-0.417,1.143-0.932,1.143H28.5V9h1.068C30.083,9,30.5,9.332,30.5,9.847V13.857z M30.5,6.943C30.5,7.458,30.083,8,29.568,8
		H28.5V2h1.068C30.083,2,30.5,2.418,30.5,2.933V6.943z"/>
</g>
</svg>
