<?xml version="1.0" encoding="utf-8"?>
<!-- Generator: Adobe Illustrator 17.1.0, SVG Export Plug-In . SVG Version: 6.00 Build 0)  -->
<!DOCTYPE svg PUBLIC "-//W3C//DTD SVG 1.1//EN" "http://www.w3.org/Graphics/SVG/1.1/DTD/svg11.dtd">
<svg version="1.1" id="Layer_1" xmlns="http://www.w3.org/2000/svg" xmlns:xlink="http://www.w3.org/1999/xlink" x="0px" y="0px"
	 viewBox="0 0 32 32" enable-background="new 0 0 32 32" xml:space="preserve">
<g>
	<defs>
		<rect id="SVGID_1_" width="32" height="32"/>
	</defs>
	<clipPath id="SVGID_2_">
		<use xlink:href="#SVGID_1_"  overflow="visible"/>
	</clipPath>
	<path clip-path="url(#SVGID_2_)" d="M16.789,12.385c-0.379-0.487-1.199-0.487-1.578,0l-14,18c-0.234,0.302-0.277,0.711-0.109,1.054
		C1.27,31.781,1.618,32,2,32h28h0.02c0.552,0,1-0.447,1-1c0-0.297-0.128-0.561-0.331-0.744L16.789,12.385z M4.045,30L16,14.629
		L27.955,30H4.045z"/>
	<polygon clip-path="url(#SVGID_2_)" points="23.69,18 24.468,19 27,19 28,19 28,18 28,5 28,4 27,4 5.001,4 4.001,4 4.001,5 
		4.001,18 4.001,19 5.001,19 7.533,19 8.311,18 5.001,18 5.001,5 27,5 27,18 	"/>
	<path clip-path="url(#SVGID_2_)" d="M30,0H2C0.895,0,0,0.895,0,2v19c0,1.104,0.895,2,2,2h2.421l1.556-2H2V2h28v19h-3.977l1.556,2
		H30c1.104,0,2-0.896,2-2V2C32,0.895,31.104,0,30,0"/>
</g>
</svg>
