<?xml version="1.0" encoding="utf-8"?>
<!-- Generator: Adobe Illustrator 17.1.0, SVG Export Plug-In . SVG Version: 6.00 Build 0)  -->
<!DOCTYPE svg PUBLIC "-//W3C//DTD SVG 1.1//EN" "http://www.w3.org/Graphics/SVG/1.1/DTD/svg11.dtd">
<svg version="1.1" id="Layer_1" xmlns="http://www.w3.org/2000/svg" xmlns:xlink="http://www.w3.org/1999/xlink" x="0px" y="0px"
	 viewBox="0 0 32 32" enable-background="new 0 0 32 32" xml:space="preserve">
<g>
	<defs>
		<rect id="SVGID_1_" width="32" height="32"/>
	</defs>
	<clipPath id="SVGID_2_">
		<use xlink:href="#SVGID_1_"  overflow="visible"/>
	</clipPath>
	<path clip-path="url(#SVGID_2_)" d="M30,0H2C0.896,0,0,0.896,0,2v28c0,1.105,0.896,2,2,2h28c1.105,0,2-0.895,2-2V2
		C32,0.896,31.105,0,30,0 M6,30H2V2h4V30z M24,30H7V2h5v13.892l2.501-3.068L17,15.892V2h7V30z M27,30h-2V2h2V30z M30,30h-2V2h2V30z"
		/>
</g>
</svg>
