<?xml version="1.0" encoding="utf-8"?>
<!-- Generator: Adobe Illustrator 17.1.0, SVG Export Plug-In . SVG Version: 6.00 Build 0)  -->
<!DOCTYPE svg PUBLIC "-//W3C//DTD SVG 1.1//EN" "http://www.w3.org/Graphics/SVG/1.1/DTD/svg11.dtd">
<svg version="1.1" id="Layer_1" xmlns="http://www.w3.org/2000/svg" xmlns:xlink="http://www.w3.org/1999/xlink" x="0px" y="0px"
	 viewBox="0 0 32 32" enable-background="new 0 0 32 32" xml:space="preserve">
<g>
	<defs>
		<rect id="SVGID_1_" width="32" height="32"/>
	</defs>
	<clipPath id="SVGID_2_">
		<use xlink:href="#SVGID_1_"  overflow="visible"/>
	</clipPath>
	<path clip-path="url(#SVGID_2_)" d="M16,2c2.209,0,4,1.791,4,4c0,1.477-0.81,2.752-2,3.445v16.331
		c2.691-0.586,5.192-2.346,7.199-5.067L23,18.999h7v6.511l-1.944-1.944C24.837,27.69,20.577,29.999,16,29.999
		c-4.578,0-8.837-1.819-12.057-5.943L2,25.999v-7h7L6.809,21.19c2.006,2.719,4.5,4.001,7.191,4.586V9.445C12.81,8.752,12,7.477,12,6
		C12,3.791,13.791,2,16,2 M16,8c1.102,0,2-0.897,2-2c0-1.103-0.898-2-2-2c-1.103,0-2,0.897-2,2C14,7.103,14.897,8,16,8 M16,0
		c-3.309,0-6,2.691-6,6c0,1.705,0.745,3.324,2,4.45v12.408c-0.873-0.512-1.709-0.703-2.491-1.539l0.905-0.905
		c0.572-0.572,0.743-1.433,0.434-2.18c-0.31-0.747-1.039-1.235-1.848-1.235H2c-1.105,0-2,0.896-2,2v7
		c0,0.81,0.487,1.539,1.234,1.848C1.482,27.95,1.742,27.999,2,27.999c0.52,0,1.031-0.203,1.414-0.585l0.425-0.425
		c3.417,3.563,7.666,5.01,12.161,5.01s8.744-1.937,12.161-5.5l0.425,0.425C28.969,27.307,29.48,27.51,30,27.51
		c0.258,0,0.518-0.05,0.766-0.153C31.513,27.048,32,26.319,32,25.51v-6.511c0-1.104-0.896-2-2-2h-7
		c-0.809,0-1.538,0.488-1.848,1.235c-0.309,0.747-0.138,1.608,0.434,2.18l0.913,0.423c-0.783,0.835-1.621,1.515-2.499,2.026V10.45
		c1.255-1.126,2-2.745,2-4.45C22,2.691,19.309,0,16,0"/>
</g>
</svg>
