<?xml version="1.0" encoding="utf-8"?>
<!-- Generator: Adobe Illustrator 17.1.0, SVG Export Plug-In . SVG Version: 6.00 Build 0)  -->
<!DOCTYPE svg PUBLIC "-//W3C//DTD SVG 1.1//EN" "http://www.w3.org/Graphics/SVG/1.1/DTD/svg11.dtd">
<svg version="1.1" id="Layer_1" xmlns="http://www.w3.org/2000/svg" xmlns:xlink="http://www.w3.org/1999/xlink" x="0px" y="0px"
	 viewBox="0 0 32 32" enable-background="new 0 0 32 32" xml:space="preserve">
<g>
	<defs>
		<rect id="SVGID_1_" width="32" height="32"/>
	</defs>
	<clipPath id="SVGID_2_">
		<use xlink:href="#SVGID_1_"  overflow="visible"/>
	</clipPath>
	<path clip-path="url(#SVGID_2_)" d="M31.998,22.917c-0.02-0.505-0.228-0.962-0.556-1.303c-0.358-0.374-0.755-0.766-1.168-1.171
		C28.971,19.161,27,17.224,27,16.051v-3.949c-0.024-4.788-3.162-9.07-7.575-10.508C18.634,0.592,17.393,0,15.984,0
		c-1.436,0-2.659,0.559-3.438,1.534C8.148,2.971,5.023,7.276,5,12.092v3.959c0,1.173-1.971,3.11-3.274,4.392
		c-0.412,0.405-0.81,0.797-1.168,1.171c-0.328,0.341-0.535,0.798-0.556,1.303C0,22.949,0,22.982,0,23.015V25c0,1.104,0.896,2,2,2
		h7.648c0.892,2.93,3.475,5,6.336,5c2.862,0,5.444-2.07,6.334-5H30c1.105,0,2-0.896,2-2v-1.985C32,22.982,32,22.949,31.998,22.917
		 M7,16.051v-3.949c0.019-4,2.73-7.885,6.834-8.854C14.188,2.41,15.017,2,15.984,2c0.966,0,1.795,0.469,2.151,1.307
		c4.102,0.97,6.845,4.795,6.865,8.795v3.949c0,2.061,2.175,4.148,4.005,5.949H2.995C4.825,20.199,7,18.112,7,16.051 M15.984,30
		c-2.198,0-4.035-1.756-4.532-4h9.063C20.019,28.244,18.181,30,15.984,30 M30,25H2v-2h28V25z"/>
</g>
</svg>
