<?xml version="1.0" encoding="utf-8"?>
<!-- Generator: Adobe Illustrator 17.1.0, SVG Export Plug-In . SVG Version: 6.00 Build 0)  -->
<!DOCTYPE svg PUBLIC "-//W3C//DTD SVG 1.1//EN" "http://www.w3.org/Graphics/SVG/1.1/DTD/svg11.dtd">
<svg version="1.1" id="Layer_1" xmlns="http://www.w3.org/2000/svg" xmlns:xlink="http://www.w3.org/1999/xlink" x="0px" y="0px"
	 viewBox="0 0 32 32" enable-background="new 0 0 32 32" xml:space="preserve">
<g>
	<defs>
		<rect id="SVGID_1_" width="32" height="32"/>
	</defs>
	<clipPath id="SVGID_2_">
		<use xlink:href="#SVGID_1_"  overflow="visible"/>
	</clipPath>
	<path clip-path="url(#SVGID_2_)" d="M9.939,16.538c1.053,0.181,2.018,0.606,2.844,1.21l-1.651-3.972L9.939,16.538z"/>
	<path clip-path="url(#SVGID_2_)" d="M8.783,19.544c-2.023,0-3.672,1.648-3.672,3.673s1.649,3.672,3.672,3.672
		c2.027,0,3.674-1.647,3.674-3.672S10.81,19.544,8.783,19.544"/>
	<path clip-path="url(#SVGID_2_)" d="M26.359,15.019L22.916,6.77l1.586-1.586c0.871-0.866,1.132-2.166,0.658-3.309
		c-0.469-1.139-1.571-1.876-2.804-1.876h-6.741c-1.675,0-3.039,1.347-3.039,3.002c0,1.653,1.364,2.998,3.039,2.998h0.678
		c0.003,0.334,0.064,0.671,0.185,1h-2.727c0-0.652-0.185-1.29-0.523-1.796c-0.51-0.765-1.322-1.204-2.227-1.204h-4
		c-1.567,0-2.75,1.29-2.75,3c0,1.63,1.074,2.878,2.531,2.992l0.771,1.402l-1.322,3.378C2.558,15.875,0,19.248,0,23.194
		c0,4.849,3.941,8.795,8.783,8.795c2.985,0,5.626-1.495,7.215-3.775C17.585,30.501,20.23,32,23.217,32C28.06,32,32,28.06,32,23.217
		C32,19.54,29.727,16.304,26.359,15.019 M23.217,30c-3.748,0-6.783-3.037-6.783-6.784c0-3.536,2.705-6.437,6.158-6.753l-0.752-1.787
		l-7.393,4.815c0.706,1.069,1.122,2.343,1.122,3.72c0,3.747-3.038,6.778-6.786,6.778C5.037,29.989,2,26.94,2,23.194
		c0-3.381,2.475-6.197,5.709-6.714l2.047-5.229L7.971,7.999h-0.97c-1,0-1-2,0-2h4c1,0,1,2,0,2h-0.632l0.563,1h8.586l-1.145-2.644
		c-0.162-0.388-0.074-0.767,0.223-1.064l1.254-1.292h-4.235c-0.574,0-1.039-0.427-1.039-0.998c0-0.574,0.465-1.002,1.039-1.002
		h6.741c0.418,0,0.797,0.253,0.957,0.641c0.16,0.387,0.072,0.835-0.225,1.13l-2.533,2.534l4.314,10.339
		C27.815,17.382,30,20.041,30,23.217C30,26.963,26.963,30,23.217,30"/>
	<polygon clip-path="url(#SVGID_2_)" points="12.109,11 14.66,16.784 21.019,12.547 20.392,11 	"/>
	<path clip-path="url(#SVGID_2_)" d="M23.217,19.544c-2.025,0-3.674,1.648-3.674,3.673s1.649,3.672,3.674,3.672
		s3.672-1.647,3.672-3.672S25.242,19.544,23.217,19.544"/>
</g>
</svg>
