<?xml version="1.0" encoding="utf-8"?>
<!-- Generator: Adobe Illustrator 17.1.0, SVG Export Plug-In . SVG Version: 6.00 Build 0)  -->
<!DOCTYPE svg PUBLIC "-//W3C//DTD SVG 1.1//EN" "http://www.w3.org/Graphics/SVG/1.1/DTD/svg11.dtd">
<svg version="1.1" id="Layer_1" xmlns="http://www.w3.org/2000/svg" xmlns:xlink="http://www.w3.org/1999/xlink" x="0px" y="0px"
	 viewBox="0 0 32 32" enable-background="new 0 0 32 32" xml:space="preserve">
<g>
	<defs>
		<rect id="SVGID_1_" width="32" height="32"/>
	</defs>
	<clipPath id="SVGID_2_">
		<use xlink:href="#SVGID_1_"  overflow="visible"/>
	</clipPath>
	<path clip-path="url(#SVGID_2_)" d="M30,0h-4.659c-0.8,0-1.524,0.477-1.838,1.212l-1.939,4.524l-4.15-4.15
		C17.023,1.195,16.512,1,16,1c-0.512,0-1.023,0.195-1.414,0.586l-2,2c-0.686,0.685-0.77,1.745-0.251,2.522L0.448,20.739
		c-0.646,0.795-0.587,1.95,0.138,2.675l8,8C8.975,31.803,9.486,32,10.001,32c0.444,0,0.891-0.147,1.26-0.447l14.631-11.888
		C26.226,19.889,26.613,20,27,20c0.512,0,1.023-0.195,1.414-0.586l2-2c0.781-0.781,0.781-2.047,0-2.828l-4.281-4.281L27.977,6H30
		c1.104,0,2-0.895,2-2V2C32,0.895,31.104,0,30,0 M10,30l-8-8L14.366,6.78l10.853,10.855L10,30z M27,18L14,5l2-2l13,13L27,18z
		 M23.087,7.259l1.886-4.4l1.324,1.987l-1.688,3.935L23.087,7.259z M30,4h-3.065l-1.334-2H30V4z"/>
</g>
</svg>
