<?xml version="1.0" encoding="utf-8"?>
<!-- Generator: Adobe Illustrator 17.1.0, SVG Export Plug-In . SVG Version: 6.00 Build 0)  -->
<!DOCTYPE svg PUBLIC "-//W3C//DTD SVG 1.1//EN" "http://www.w3.org/Graphics/SVG/1.1/DTD/svg11.dtd">
<svg version="1.1" id="Layer_1" xmlns="http://www.w3.org/2000/svg" xmlns:xlink="http://www.w3.org/1999/xlink" x="0px" y="0px"
	 viewBox="0 0 32 32" enable-background="new 0 0 32 32" xml:space="preserve">
<g>
	<defs>
		<rect id="SVGID_1_" width="32" height="32"/>
	</defs>
	<clipPath id="SVGID_2_">
		<use xlink:href="#SVGID_1_"  overflow="visible"/>
	</clipPath>
	<path clip-path="url(#SVGID_2_)" d="M31.775,21.587L28.965,6.63c-0.178-0.945-1.004-1.631-1.966-1.631H26V4.718
		C26,2.116,23.98,0,21.499,0C19.019,0,17,2.116,17,4.718v0.281h-2V4.718C15,2.116,12.981,0,10.501,0C8.019,0,6,2.116,6,4.718v0.281
		H5.001c-0.962,0-1.788,0.686-1.966,1.631l-2.81,14.957C0.075,22.23,0,22.874,0,23.5C0,28.107,3.892,32,8.498,32
		c3.187-0.001,6.033-1.863,7.485-4.536C17.409,30.16,20.243,32,23.499,32C28.186,32,32,28.187,32,23.5
		C32,22.874,31.925,22.23,31.775,21.587 M19,4.718C19,3.217,20.118,2,21.499,2C22.882,2,24,3.217,24,4.718v1.281h-5V4.718z M8,4.718
		C8,3.217,9.118,2,10.501,2C11.882,2,13,3.217,13,4.718v1.281H8V4.718z M15,9.999h-1v4h1v8V23.5c0,3.583-3,6.499-6.501,6.5H8.498
		C5,30,2,27.083,2,23.5c0-0.517,0.067-1.018,0.182-1.501l2.819-15H15V9.999z M23.499,30c-3.586,0-6.498-2.917-6.498-6.5
		c0-0.517-0.001-1.501-0.001-1.501v-8h1v-4h-1v-3h9.999l2.819,15C29.933,22.482,30,22.983,30,23.5C30,27.083,27.085,30,23.499,30"/>
	<path clip-path="url(#SVGID_2_)" d="M23.501,19c-2.482,0-4.5,2.019-4.5,4.5s2.018,4.5,4.5,4.5C25.982,28,28,25.981,28,23.5
		S25.982,19,23.501,19"/>
	<path clip-path="url(#SVGID_2_)" d="M8.499,28c2.482,0,4.5-2.019,4.5-4.5s-2.018-4.5-4.5-4.5C6.018,19,4,21.019,4,23.5
		S6.018,28,8.499,28"/>
</g>
</svg>
